<svg width="16" height="16" viewBox="0 0 16 16" fill="none" xmlns="http://www.w3.org/2000/svg">
<path d="M14.4933 1.62155C14.4879 1.59564 14.4753 1.57179 14.4569 1.5528C14.4384 1.53381 14.415 1.52046 14.3892 1.51432C12.6733 1.09479 8.70859 2.58981 6.56054 4.73698C6.17742 5.117 5.82815 5.5297 5.5167 5.97038C4.85429 5.91178 4.19189 5.96071 3.62734 6.2068C2.03447 6.90788 1.5707 8.73717 1.4415 9.52409C1.43417 9.56716 1.43694 9.61134 1.44958 9.65316C1.46222 9.69498 1.48439 9.7333 1.51434 9.76511C1.5443 9.79691 1.58123 9.82133 1.62222 9.83644C1.66321 9.85156 1.70715 9.85695 1.75058 9.85221L4.30849 9.57008C4.31032 9.76293 4.32196 9.95556 4.34336 10.1472C4.35623 10.2803 4.41531 10.4047 4.51035 10.4988L5.50087 11.487C5.59503 11.5819 5.71938 11.641 5.85244 11.654C6.04303 11.6753 6.23459 11.6869 6.42636 11.6888L6.1457 14.2435C6.14102 14.2869 6.14646 14.3308 6.16159 14.3718C6.17673 14.4128 6.20115 14.4497 6.23294 14.4796C6.26472 14.5096 6.30302 14.5317 6.34481 14.5444C6.3866 14.5571 6.43076 14.5599 6.47382 14.5526C7.25927 14.4266 9.09179 13.9629 9.78876 12.37C10.0349 11.8054 10.0852 11.1463 10.0284 10.4871C10.4702 10.1756 10.8839 9.82623 11.265 9.44293C13.4198 7.29899 14.9063 3.42272 14.4933 1.62155ZM9.11523 6.88532C8.91847 6.68869 8.78445 6.43812 8.73011 6.16531C8.67577 5.8925 8.70357 5.6097 8.80998 5.35269C8.91639 5.09568 9.09663 4.876 9.3279 4.72143C9.55918 4.56687 9.8311 4.48437 10.1093 4.48437C10.3874 4.48437 10.6594 4.56687 10.8906 4.72143C11.1219 4.876 11.3022 5.09568 11.4086 5.35269C11.515 5.6097 11.5428 5.8925 11.4884 6.16531C11.4341 6.43812 11.3001 6.68869 11.1033 6.88532C10.9728 7.01598 10.8179 7.11963 10.6473 7.19035C10.4768 7.26108 10.2939 7.29748 10.1093 7.29748C9.92462 7.29748 9.74179 7.26108 9.57122 7.19035C9.40065 7.11963 9.2457 7.01598 9.11523 6.88532Z" fill="#0075FF"/>
<path d="M5.43359 12.2028C5.27305 12.3636 5.01553 12.4263 4.70557 12.4799C4.00918 12.5986 3.39424 11.9968 3.51934 11.2928C3.56709 11.0259 3.7083 10.6518 3.79619 10.5639C3.8154 10.5451 3.82819 10.5206 3.83273 10.4941C3.83728 10.4676 3.83336 10.4403 3.82152 10.4162C3.80968 10.392 3.79053 10.3722 3.76679 10.3595C3.74305 10.3469 3.71592 10.342 3.68926 10.3456C3.29983 10.3933 2.93754 10.5698 2.66006 10.8472C1.97129 11.5366 1.90625 14.0945 1.90625 14.0945C1.90625 14.0945 4.46562 14.0294 5.15439 13.3401C5.43261 13.0628 5.60939 12.7 5.65625 12.31C5.66709 12.1875 5.51797 12.1146 5.43359 12.2028Z" fill="#0075FF"/>
</svg>
