<svg width="16" height="16" viewBox="0 0 16 16" fill="none" xmlns="http://www.w3.org/2000/svg">
<path d="M13.0391 7.06261H8.9375C8.56454 7.06261 8.20685 6.91445 7.94313 6.65072C7.67941 6.387 7.53125 6.02932 7.53125 5.65636V1.55479C7.53125 1.52371 7.5189 1.49391 7.49693 1.47193C7.47495 1.44995 7.44514 1.43761 7.41406 1.43761H4.71875C4.22147 1.43761 3.74456 1.63515 3.39292 1.98678C3.04129 2.33841 2.84375 2.81533 2.84375 3.31261V12.6876C2.84375 13.1849 3.04129 13.6618 3.39292 14.0134C3.74456 14.3651 4.22147 14.5626 4.71875 14.5626H11.2812C11.7785 14.5626 12.2554 14.3651 12.6071 14.0134C12.9587 13.6618 13.1562 13.1849 13.1562 12.6876V7.17979C13.1562 7.14871 13.1439 7.11891 13.1219 7.09693C13.0999 7.07495 13.0701 7.06261 13.0391 7.06261Z" fill="#0075FF"/>
<path d="M12.7818 6.02594L8.56865 1.81275C8.56046 1.80461 8.55004 1.79907 8.53871 1.79683C8.52737 1.79459 8.51563 1.79575 8.50495 1.80016C8.49428 1.80458 8.48514 1.81205 8.4787 1.82164C8.47226 1.83123 8.4688 1.84251 8.46875 1.85406V5.65709C8.46875 5.78141 8.51814 5.90064 8.60604 5.98855C8.69395 6.07645 8.81318 6.12584 8.9375 6.12584H12.7405C12.7521 6.12579 12.7634 6.12233 12.773 6.11589C12.7825 6.10945 12.79 6.10031 12.7944 6.08964C12.7988 6.07896 12.8 6.06722 12.7978 6.05588C12.7955 6.04455 12.79 6.03413 12.7818 6.02594V6.02594Z" fill="#0075FF"/>
</svg>
