<svg width="15" height="16" viewBox="0 0 15 16" fill="none" xmlns="http://www.w3.org/2000/svg">
<g clip-path="url(#clip0_580_3102)">
<path d="M3.75 12.375C3.75 13.0625 4.3125 13.625 5 13.625H10C10.6875 13.625 11.25 13.0625 11.25 12.375V6.12501C11.25 5.43751 10.6875 4.87502 10 4.87502H5C4.3125 4.87502 3.75 5.43751 3.75 6.12501V12.375ZM11.25 3.00002H9.6875L9.24375 2.55627C9.13125 2.44377 8.96875 2.37502 8.80625 2.37502H6.19375C6.03125 2.37502 5.86875 2.44377 5.75625 2.55627L5.3125 3.00002H3.75C3.40625 3.00002 3.125 3.28127 3.125 3.62502C3.125 3.96877 3.40625 4.25002 3.75 4.25002H11.25C11.5937 4.25002 11.875 3.96877 11.875 3.62502C11.875 3.28127 11.5937 3.00002 11.25 3.00002Z" fill="#F53C2B"/>
</g>
<defs>
<clipPath id="clip0_580_3102">
<rect width="15" height="15" fill="white" transform="translate(0 0.500015)"/>
</clipPath>
</defs>
</svg>
