<svg width="15" height="15" viewBox="0 0 15 15" fill="none" xmlns="http://www.w3.org/2000/svg">
<g clip-path="url(#clip0_580_3177)">
<path d="M12.5392 6.56262H8.43765C8.06469 6.56262 7.70701 6.41446 7.44328 6.15074C7.17956 5.88702 7.0314 5.52933 7.0314 5.15637V1.05481C7.0314 1.02373 7.01906 0.993922 6.99708 0.971946C6.9751 0.949969 6.94529 0.937622 6.91421 0.937622H4.2189C3.72162 0.937622 3.24471 1.13517 2.89308 1.4868C2.54145 1.83843 2.3439 2.31534 2.3439 2.81262V12.1876C2.3439 12.6849 2.54145 13.1618 2.89308 13.5134C3.24471 13.8651 3.72162 14.0626 4.2189 14.0626H10.7814C11.2787 14.0626 11.7556 13.8651 12.1072 13.5134C12.4589 13.1618 12.6564 12.6849 12.6564 12.1876V6.67981C12.6564 6.64873 12.6441 6.61892 12.6221 6.59694C12.6001 6.57497 12.5703 6.56262 12.5392 6.56262ZM9.8439 11.2501H5.1564C5.03208 11.2501 4.91285 11.2007 4.82495 11.1128C4.73704 11.0249 4.68765 10.9057 4.68765 10.7814C4.68765 10.657 4.73704 10.5378 4.82495 10.4499C4.91285 10.362 5.03208 10.3126 5.1564 10.3126H9.8439C9.96822 10.3126 10.0875 10.362 10.1754 10.4499C10.2633 10.5378 10.3127 10.657 10.3127 10.7814C10.3127 10.9057 10.2633 11.0249 10.1754 11.1128C10.0875 11.2007 9.96822 11.2501 9.8439 11.2501ZM9.8439 8.90637H5.1564C5.03208 8.90637 4.91285 8.85698 4.82495 8.76908C4.73704 8.68117 4.68765 8.56194 4.68765 8.43762C4.68765 8.3133 4.73704 8.19407 4.82495 8.10616C4.91285 8.01826 5.03208 7.96887 5.1564 7.96887H9.8439C9.96822 7.96887 10.0875 8.01826 10.1754 8.10616C10.2633 8.19407 10.3127 8.3133 10.3127 8.43762C10.3127 8.56194 10.2633 8.68117 10.1754 8.76908C10.0875 8.85698 9.96822 8.90637 9.8439 8.90637Z" fill="white"/>
<path d="M12.282 5.526L8.06877 1.31282C8.06058 1.30467 8.05016 1.29913 8.03883 1.29689C8.0275 1.29465 8.01575 1.29581 8.00508 1.30022C7.9944 1.30464 7.98527 1.31211 7.97882 1.3217C7.97238 1.33129 7.96892 1.34257 7.96887 1.35412V5.15715C7.96887 5.28147 8.01826 5.4007 8.10617 5.48861C8.19407 5.57652 8.3133 5.6259 8.43762 5.6259H12.2406C12.2522 5.62585 12.2635 5.62239 12.2731 5.61595C12.2827 5.60951 12.2901 5.60037 12.2946 5.5897C12.299 5.57902 12.3001 5.56728 12.2979 5.55594C12.2956 5.54461 12.2901 5.53419 12.282 5.526V5.526Z" fill="white"/>
</g>
<defs>
<clipPath id="clip0_580_3177">
<rect width="15" height="15" fill="white"/>
</clipPath>
</defs>
</svg>
